/* XPM */
static char *result[] = {
/* columns rows colors chars-per-pixel */
"64 63 136 2 ",
"   c #3C0606",
".  c #370B0B",
"X  c #3C0C0C",
"o  c #221E1E",
"O  c #2B1A1A",
"+  c #351414",
"@  c #3B1515",
"#  c #341C1C",
"$  c #3B1B1B",
"%  c #242424",
"&  c #2C2525",
"*  c #2C2B2B",
"=  c #332222",
"-  c #392323",
";  c #342D2D",
":  c #3C2C2C",
">  c #30302A",
",  c #333333",
"<  c #3C3737",
"1  c #3A3A3A",
"2  c #420000",
"3  c #4D0000",
"4  c #440D0D",
"5  c #4A0D0D",
"6  c #520202",
"7  c #5C0101",
"8  c #530E0E",
"9  c #580C0C",
"0  c #441515",
"q  c #4A1515",
"w  c #421C1C",
"e  c #491A1A",
"r  c #561212",
"t  c #640000",
"y  c #6B0000",
"u  c #6B0B0B",
"i  c #730000",
"p  c #7C0000",
"a  c #730B0B",
"s  c #631D1D",
"d  c #691A1A",
"f  c #741616",
"g  c #7B1414",
"h  c #7B1D1D",
"j  c #452121",
"k  c #4A2323",
"l  c #442C2C",
"z  c #522D2D",
"x  c #4B3535",
"c  c #413C3C",
"v  c #4E3B3B",
"b  c #523232",
"n  c #5B3535",
"m  c #543939",
"M  c #5D3B3B",
"N  c #662525",
"B  c #6D2525",
"V  c #622929",
"C  c #6B2B2B",
"Z  c #702727",
"A  c #7C2222",
"S  c #722D2D",
"D  c #7D2C2C",
"F  c #663636",
"G  c #683030",
"H  c #633B3B",
"J  c #6C3B3B",
"K  c #743434",
"L  c #7B3333",
"P  c #753E3E",
"I  c #7B3C3C",
"U  c #545004",
"Y  c #6E6A01",
"T  c #444444",
"R  c #4B4646",
"E  c #4B4B4B",
"W  c #514444",
"Q  c #514C4C",
"!  c #545353",
"~  c #585252",
"^  c #5A5A5A",
"/  c #664343",
"(  c #6B4444",
")  c #644C4C",
"_  c #6E4B4B",
"`  c #735151",
"'  c #830000",
"]  c #8C0000",
"[  c #8E0F0F",
"{  c #930000",
"}  c #9B0000",
"|  c #9A0F0F",
" . c #8F1313",
".. c #871D1D",
"X. c #8C1D1D",
"o. c #921515",
"O. c #9E1414",
"+. c #941A1A",
"@. c #9A1D1D",
"#. c #A30000",
"$. c #AC0000",
"%. c #A60C0C",
"&. c #AA0E0E",
"*. c #B30000",
"=. c #BB0000",
"-. c #B60C0C",
";. c #BA0C0C",
":. c #A11616",
">. c #AA1212",
",. c #A51A1A",
"<. c #AB1D1D",
"1. c #B21616",
"2. c #BA1212",
"3. c #B41C1C",
"4. c #832424",
"5. c #8C2323",
"6. c #862929",
"7. c #882A2A",
"8. c #942323",
"9. c #9B2222",
"0. c #932A2A",
"q. c #9E2C2C",
"w. c #843333",
"e. c #883737",
"r. c #9A3131",
"t. c #A42121",
"y. c #B02020",
"u. c #C30000",
"i. c #CB0000",
"p. c #C50B0B",
"a. c #CE0D0D",
"s. c #D20000",
"d. c #DE0000",
"f. c #DA0909",
"g. c #E40000",
"h. c #EA0000",
/* pixels */
"1 , 1 , 1 < , 1 1 , 1 1 < 1 , 1 < 1 1 < , 1 1 , 1 1 1 1 1 , 1 1 , 1 1 , 1 1 1 , 1 1 , 1 1 , 1 , 1 1 , 1 1 , 1 , 1 1 1 , 1 1 , 1 ",
"1 ! < ~ R R R R R ~ R R R R R E Q W c R R R R R R R ~ ~ ~ ~ ~ E R R R R R R R R Q ~ ~ ~ ~ ~ ~ Q R R R < < 1 R R ! ~ R R R R R 1 ",
"E < h.h.s.s.s.i.s.s.s.s.u. .T E ( h.g.s.s.i.s.s.s.s.i.s.s.s.s.s.s.s.s.s.=.C 1 E y.h.h.h.g.d.d.d.d.d.s.s.s.s.s.u.u.u.u.=.=.=.#.T ",
"> R h.u.$.*.i.] $.u.{ =.{ 9 , E I d.$.{ $.} $.} #.{ $.#.$.$.} } } } u.*.' j 1 1 O.*.=.*.=.*.*.=.' *.] =.*.u.{ $.#.' u.} u.#.p * ",
"Y R s.} ' #.] #.{ p } ' y 9 , E P i.$.] { } ' ' #.{ ' } #.] ' } ] ] } ' t $ 1 ! <.*.#.' y { ] p ' } ' ] } #.] #.' ' #.t #.i t * ",
"U R s.' #.} p { #.} p } 6   , E P u.} *.} { { ' } { ] ' ] p ' ] ] ' ' p t $ 1 R @.{ { p ' } i { p { ' } ] #.y } } ' } p #.i 3 * ",
"* R u.} ' ] { ' } i ] { t   , E J =.$.{ { ' ] } ] p ' ' } p ' ] ' p ] ' 6 # , T X.] { ] { { y { p i { #.p } ] #.} ' #.7 #.' 3 * ",
"* R =.' } } i } ] i ] i 6   , T F =.*.] ] ' ] ' ] ' ] p ] p i { ' ' ' i t $ , T +.#.} i p { ' ' i ' p } ' } y { p ' } ' } i   * ",
"* R *.} y ' 6 y i 6 y p t   * T H { ' y t t p y i p t 7 i i i i 7 t i t 6 # , T X.' y t y i 6 i 7 y 7 p 7 t 3 p t 6 y p y p 4 * ",
"* R a 9 9 7     4     .   . * 1 m u 9 7 6 5 8 6 6 5 3 3 4                 # , T d u 9 7 7 9 9 t 9 7 9 6 3 8 3 3 3 6 6 8       * ",
"* E R * ; * , , ; * * % % % , T E T , , , , * % % % & * ; * % % % * , , * , T E T , , , , , , , , , , , * % % % * * , * ; , , * ",
"k ( z z z b M M M M z z z z b m x R E R H H H n z b n / M M n z n M M M M M / n n / ( / / _ ` ` _ ( / M M T 1 T ( n / H H H ( z ",
"i.d.u.u.i.*.*.*.*.*.*.=.$.=.*.$.g R Q L g.s.s.i.i.i.u.u.u.=.=.u.=.u.*.*.*.*.*.*.*.$.=.*.*.*.*.=.=.=.=.=.} m T E f.g.u.i.u.i.u.i.",
"$.$.{ ] $.] ' #.p { ] { i #.{ ' @ 1 E e.u.] $.#.{ } p } #.' #.#.{ { ' ] { { { ] } ] #.' #.} ] $.=.} *.#.6 : T T f.u.' $.] #.{ $.",
"{ ' #.] } ' ' ] i } ' i ' #.{ t X , T K u.{ ] { ] } { ] ' ' ] i p { ] ] ] ] p ] #.] i ] { { ' ' } ' { i 2 , T E -.#.] #.{ p #.{ ",
"p ' } } ] { y { ' ' { ] i } p t X * 1 K *.' } { { ] i p ] i ] { i ] { ' i p ' ] } y p p } p { p { } ' i 3 = 1 R -.{ { #.} ] } p ",
"p { { ' #.' p p ] p #.' p } i t   * T K *.' } { ] ] i ] ' y ] p p { ] p p { p ' ] y { i ] ] p p } p } p 3 & , T -.#.] #.i #.] ' ",
"' i #.t { t ' p { y { y ' } ] t X 1 R I =.{ i ] ' { p i i y p y p ] ' i i ] p p i i { p p { i p } p { i 3 o , E %.] { { 7 { ' ' ",
"t t { 7 t 3 y y p y p t 7 p t 7 X , E P #.' i i t i p i i y i y t p i p y i i i i t i i t i 7 7 ' y i y 2 O 1 E %.{ i y 6 7 ' t ",
"X + X 4 X 4 4 4 4 X   0 4 X . . # 1 E M g r 8 8 8 8 8 8 8 r r r r 5 5 5 5 4 4 4 4 5 5 5 5 5 4 4 5 5 5 @ + % T T g 8 X r X X 8 X ",
"* 1 1 , * * 1 , * , * , , * & * , 1 T T T 1 1 , , , , , , 1 1 1 1 1 , , ; * & % & , , , , * * & * , , , 1 1 R E E 1 * , 1 , , 1 ",
"* ! e.6.B B L L Z L B C G N N N N K K K K C G N N N N N x R E / e.D L L S B B B Z Z S K K S N N C G C K K K I N K C N C I C G R ",
"* ! h.u.u.i.=.i.*.i.*.*.$.*.$.=.=.$.*.$.*.*.=.*.#.=.*.{ s E ! q.g.u.u.i.u.u.u.u.=.u.u.=.$.} $.$.#.#.*.$.$.*.$.$.$.#.$.*.} *.p 1 ",
"* E h.} #.$.] $.' } ] $.{ } { #.*.] { { { } } ] ' $.} y $ 1 Q q.i.} #.#.} { ] { { } { } ' i } ' ' ' } ' ] } } ' } ] ' #.y ] 2 * ",
"* c s.{ { #.] { i ' ' #.{ { ] { } i ' { p { ] i ' ] ] i + 1 ! r.i.#.} ' ] p p p ] { p { p ] { i { p ] ] } ' } p #.} p #.y y 2 * ",
"* E =.' } } t ] 7 ] p } p ] ] } ] i ' ] ' ' } p i ] ' 6 + T ^ r.=.{ ] ] { p ' ] ' { ' ] p ] { p ] p i { } ' { p #.{ ' #.y i 2 * ",
"* E =.{ p } 6 { y ' p } p ' p } ' i p { ] p { i p ' i t + 1 ! r.*.{ ] ] ] p ] { p { p ' i i ] i ] y ] i } i } ' { i i ] ' i 2 * ",
"* Q u.' t ] 7 p i ' t ' y ] i { i i ] ' i i ] p ' ' ' i + , E 7.u.{ ' ' ] ' ' ' i ' i ] i i t y p t { t ' y p } p p 6 ' p i   * ",
"* R *.} t y y y t t 7 y y i t i y y y t 7 7 y y y y 7 3 @ , T 6.} p i i i t t y y y t i y i 7 i t t p 7 t i 6 p 7 p 3 p i t 2 * ",
"* E A d q q q q q q q q q q q q q e @ @ @ e w w @ @ @ @ = , R H s q q q q q q q 0 0 4 0 4 q e e e 0 0 X X 0 0 0 0 0 + 0 r 0 # * ",
"* E E R T 1 1 1 , , , , , 1 1 E T T 1 1 1 T 1 1 , , , , , 1 R E T 1 1 1 1 1 1 1 * * , * ; 1 c T T 1 , * * 1 1 < 1 , 1 1 1 1 c , ",
"f 7.7.7.7.7.4.A h 4.h N T T ) r.r.0.0.0.5.5.5.A h h h h h h 4.4.4.4.7.A 4.7.7.4.n T E C X.5.0.0.5.5.5.....5.6.4.7.A 6.4.4.4.7.h ",
"$.*.=.$.*.$.u.=.*.u.#.u 1 T H s.*.#.*.$.=.*.#.$.#.*.#.} #.} } *.} } $.#.#.#.$.] z R ! <.u.$.=.#.*.=.#.*.$.$.} $.{ $.#.*.} *.{ $.",
"] #.{ { $.{ *.{ $.#.p X 1 R F =.' ' ] ] } ] ] { ] } ] ' ] ' ] } p ] { ' { ' ] t - R Q <.*.p { p } } y { ] { ' { ' } p } p } p ] ",
"y { p } } ] } ' } { t   , T F =.i } ] ] } ] ] ] ' } { ' p p p { ' { ' ' } ' { t - E ^ y.*.p { p } ] ] { { #.' { p { p } ] ] } y ",
"p } ' { } ] #.] ] ] y   , E F u.' ] { ] } p p { ' { ' p ] ' i { ' ' ' ' ] { { 7 - E ^ y.#.{ } p { p } } { ] { ] ] { { } ] p ] p ",
"p #.' p #.] } ] ] { t 4 1 E H =.p ] ' i } ' i ] ] { ] ' ' i y ' p ' { ' ] { { t - T ^ <.#.] #.{ ] ' { { p { ] { ] { ] } ' ' ] p ",
"i ' p ' } i ' ] ' ' t   1 R H } i #.' y } ' p ] ] { ] ' i i i ] p ' ] ' { ' p 7 # T Q ,.*.p { ] ] #.] { ] } ' } i { p } p } #.i ",
"6 6 6 t y 7 7 y 7 7 6   , R M { y p i y p y i i y y t y t t t i t t y y i t 7 3 # 1 E +.] t i y p p i p i p y p y i y i y i i 6 ",
"# # # $ # $ # $ # # # = , E W V w + @ @ $ w w k j w # + + + + $ $ $ $ $ $ $ # # * T R F k w w w j k z k w w $ @ @ w w $ $ $ $ # ",
"* T 1 R , 1 , 1 1 1 , , , T E T , * , 1 1 1 T T E T 1 , * , < 1 T c T 1 1 1 1 1 1 T E E T 1 T c E E ^ E T 1 1 * T 1 T c T , T , ",
"* T 1.<.O.,.O.O.,.,.o.o. .o.+.o. . .o.+.+.+.+.+.@.+.+.+. . .+.X.z R R D 1.>.:.O.,.,.<.<.<.o.+.+.@.@.9.@.@.+.@.o.@.+.@.+.@.o...T ",
"* R d.*.#.#.$.] *.$.{ #.#.{ #.] } #.] #.} #.#.} { } { $.} ] } ] e T E ,.s.*.} #.{ #.] #.} #.' } } ' } } ] #.} { #.{ #.] } $.t , ",
"* Q s.#.i } ] y } { { ] } i ' i } ] p ] i { { p p { ' } { ' ' y # 1 E 9.*.} p p i p y p y ] ' } i ' p { i ] p { { p { { i ] 2 * ",
"* R s.] y } i p p i } i } ' p ' } i ] ] i i ] ' y ' p ' p ' p t + , T +.#.} p y p ] p y ' ' y ] { i ] ' i { i } ' { ' ] t }   * ",
"* c s.} p #.p i { ' ' ] } ' ] i ] ] p ] y ' ] i ] ] ' { { ] p 7 @ , T 8.*.' ] ' i { p ' ' ] p p i i i { ' ] ] { { ' i } ' #.2 * ",
"* R s.#.y { } y } i { p } i { i { i p ] t ] ] ] ] ' p ] ' ' ' y + * T 9.=.p i ] p p y ] i ] i ' t ] i ' i { p ' } ' ] ] y p 2 * ",
"* T u.#.y } i p p ' { ' } ' ] ] } ' i ' y t p ' i ] p ] ' ] ] i + * T 0.} ] i ' i ' y i ] ] t ] i ] y { p } p { ' { p } y { 2 * ",
"* Q $.i t i t y t y y t t 7 7 7 t 7 6 6 6 6 6 7 6 7 6 7 7 7 7 6 + 1 R 6.' y y t y y t t i t 7 t t t 6 7 6 7 6 7 7 7 6 7 6 6 2 * ",
"* 1 M - - - - - - - - - = : : : O o O O O = = # O O O O - O o O * 1 T v l - - - - - # O O = - : : - O = = = - O O O # & - & = * ",
"* E 1 E , E T E T T T T Q ^ ! E T T 1 E T E 1 1 , , , 1 E T T < 1 T E T R T T T T T T T c T E E Q T T 1 T T 1 * o o * , T T E T ",
"%.;.;.2.;.2.%.%.%.&.%.%.>.>.>.>.>.%.h E E I a.p.;.;.;.;.;.;.;.&.%.%.&.%.%.&.%.%.%.%.%.%.&.%.O.M T ! 3.;.;.;.;.;.%.} %.%.%.%.>.%.",
"p ] $.y $.#.p } p #.{ =.] } ' } ] { 4 1 E S i.*.$.$.{ ] ] ' } } ] { ] { #.#.] { ' { p { ] i 7 l T Q 2.*.' { #.i #.' #.p #.i #.p ",
"6 } ' p #.' { y ] p i } t p y ' i i X , R L *.] { ] ] y t t ] ] ] { i p { p i ' p ' y ] p ] 6 - T Q 2.p { t } i } i ] } p } ] 6 ",
"' #.p 7 ' } i ] y ' { p t } ' i ] y X 1 T S *.p p ' ] y p ] p p p ' } p ] p ' p p y i ] y i 3 = T ! 1.p } i i } #.] i ] i y i ' ",
"#.p { 7 { y y } y } ' { t p y i { 7 X , T Z u.' 7 ' ] p p p ] ] p ' ' p ' i ] p ] ] y y ] y 3 = T ! -.#.i 7 { { p i } i } y y #.",
"#.y } p } y } y ] } y } i t ] { ' i X 1 T C $.y } ] p { i p i y t p ' ' ' i p y p p t i p y 3 = T E ;.p { ' } p } ' i i t } i #.",
"6 t #.p p y { { y { y p y { i { i p . , R D #.y { ' ] i p ' y i p i y p ] y ] { i ] y ] y p 6 = , T 2.p } y i 7 } i } i 7 t } 6 ",
"y p { t } t y ' t p ' { y { y p ' y . , E I *.' 7 ' ' p p y i ' ' ' ' y ] p i { p p i p y p 6 O , T -.i t 7 { t } i #.i } t #.y ",
"3 6 6 3 6 3 3 3 3 6 3 3 3 3 3 3 3 2 + , R F ' 2 2 2 2 3 6 3 3 6 6 3 6 3 3 3 3 6 6 3 3 3 3 3 2 O T Q o.6 2 3 6 3 6 3 6 3 6 3 6 6 ",
"* * * ; * * * * * * * * * * * & * * * 1 E ~ T , , ; * * * * * * * * * * * * * % o o o % * % o % * T T , * * * * * % o % o o * * ",
"R , ! 1 ! 1 , 1 T R R T E ! E 1 R R R E ! ! ! ! Q E T E E E R E E E 1 T R T T < 1 T 1 , 1 T 1 1 T ! E T 1 Q E T T T T 1 1 E T R ",
"! ! ! ! ! ! ! ! ! ! ! ^ ! ! ! ! ! ! ! ! ! ! ! ! ! ! ! ! ! ! ! ! ! ! ! ! ! ! ! ! ! ! ! ! ! ! ! ! ! ! ! ! ! ! ! ! ! ! ! ! ! ! ! ! "
};
